# xmcd
#
# Track frame offsets:
#	150
#	29610
#	66389
#	98516
#	122864
#	142409
#	175861
#	211398
#
# Disc length: 3258 seconds
#
# Revision: 1
# Processed by: cddbd v1.5.2PL0 Copyright (c) Steve Scherf et al.
# Submitted via: audiograbber 1.83.01
#
DISCID=7b0cb808
DTITLE=Hariharan - In Concert
DYEAR=1990
DGENRE=Ghazal
TTITLE0=Sakiya Jaye Kahan
TTITLE1=Aaj Bhi Hai Mere Kadmon Ke Nishan Awara
TTITLE2=Ahde Masti Hai
TTITLE3=Kuch Dur
TTITLE4=Sharab La Sharab De
TTITLE5=Sakiya Jaye Kahan
TTITLE6=Ek Bewafa
TTITLE7=Beeti Bathein
EXTD=
EXTT0=
EXTT1=
EXTT2=
EXTT3=
EXTT4=
EXTT5=
EXTT6=
EXTT7=
PLAYORDER=
